<svg id="Layer_1" data-name="Layer 1" xmlns="http://www.w3.org/2000/svg" viewBox="0 0 150 100"><defs><style>.cls-1{fill:#404041;}.cls-2{fill:#547ebf;}.cls-3{fill:#43bdac;}.cls-4{fill:#193560;}.cls-5{fill:#0e8387;}.cls-6{fill:#3cbfef;}.cls-7{fill:#41bfee;}.cls-8{fill:#183660;}.cls-9{fill:#231f20;}</style></defs><path class="cls-1" d="M14.41,93.09c-.07.36-.14.72-.22,1.11s-.12.71-.2,1-.14.67-.23,1-.15.6-.22.88c-.18-.49-.38-1-.6-1.62s-.42-1.2-.6-1.82h-.58c-.19.62-.39,1.24-.59,1.82s-.41,1.13-.6,1.62c-.07-.28-.16-.57-.23-.88s-.15-.63-.22-1-.15-.71-.22-1.07-.15-.73-.2-1.09H9c.17.94.35,1.8.55,2.6a21.1,21.1,0,0,0,.65,2.25h.68c.2-.51.4-1,.6-1.54s.4-1.11.6-1.75c.2.64.38,1.2.58,1.75s.4,1,.6,1.54h.69c.24-.71.46-1.47.64-2.25s.36-1.66.54-2.6Z"/><path class="cls-1" d="M18.67,96.07a2.21,2.21,0,0,0-.38-1.4,1.41,1.41,0,0,0-1.13-.46,1.84,1.84,0,0,0-.62.11,1.5,1.5,0,0,0-.53.37,1.67,1.67,0,0,0-.38.6,2.37,2.37,0,0,0-.13.83,2.51,2.51,0,0,0,.11.77,1.73,1.73,0,0,0,.33.6,1.68,1.68,0,0,0,.57.4,2.25,2.25,0,0,0,.81.15A2.5,2.5,0,0,0,18,98l.41-.12-.09-.55a2.27,2.27,0,0,1-.36.11,3,3,0,0,1-.58,0,1.19,1.19,0,0,1-.89-.29,1.32,1.32,0,0,1-.33-.85h2.49Zm-2.47-.29a.85.85,0,0,1,.09-.38.7.7,0,0,1,.18-.31.78.78,0,0,1,.29-.24.92.92,0,0,1,.38-.09.8.8,0,0,1,.64.29,1.13,1.13,0,0,1,.22.73Z"/><path class="cls-1" d="M24.08,96.14a1.75,1.75,0,0,0-.29-.42,2.27,2.27,0,0,0-.46-.29,3.89,3.89,0,0,0-.58-.25,2.51,2.51,0,0,1-.4-.18,1.3,1.3,0,0,1-.33-.19.69.69,0,0,1-.22-.23.67.67,0,0,1-.07-.33.64.64,0,0,1,.07-.31.63.63,0,0,1,.2-.2.78.78,0,0,1,.29-.13,1.46,1.46,0,0,1,.37,0,2.34,2.34,0,0,1,.67.07,3.16,3.16,0,0,1,.44.18l.22-.54a2,2,0,0,0-.53-.22,3.32,3.32,0,0,0-.8-.09,1.83,1.83,0,0,0-1.2.36,1.17,1.17,0,0,0-.44,1,1.16,1.16,0,0,0,.11.53.84.84,0,0,0,.27.38,1.62,1.62,0,0,0,.42.28,4.53,4.53,0,0,0,.49.2,2.53,2.53,0,0,1,.44.18,1.25,1.25,0,0,1,.38.2,1.09,1.09,0,0,1,.25.27.69.69,0,0,1,.1.38c0,.48-.37.73-1.08.73a2.13,2.13,0,0,1-.8-.13,1.81,1.81,0,0,1-.49-.2l-.2.57.22.11.33.11.41.09a4.58,4.58,0,0,0,.53,0,2.15,2.15,0,0,0,1.31-.34,1.09,1.09,0,0,0,.48-1A1.55,1.55,0,0,0,24.08,96.14Z"/><path class="cls-1" d="M27.55,94.67a1.37,1.37,0,0,0-1.13-.46,1.83,1.83,0,0,0-.61.11,1.41,1.41,0,0,0-.53.37,1.54,1.54,0,0,0-.38.6,2.16,2.16,0,0,0-.13.83,2.24,2.24,0,0,0,.11.77,1.57,1.57,0,0,0,.32.6,1.68,1.68,0,0,0,.57.4,2.33,2.33,0,0,0,.84.15,2.41,2.41,0,0,0,.67-.08l.42-.12-.09-.55a2.13,2.13,0,0,1-.37.11,2.9,2.9,0,0,1-.58,0,1.19,1.19,0,0,1-.89-.29,1.5,1.5,0,0,1-.33-.85h2.49s0-.09,0-.13v-.11A2.14,2.14,0,0,0,27.55,94.67Zm-2.09,1.11a1.62,1.62,0,0,1,.09-.38.81.81,0,0,1,.18-.31,1,1,0,0,1,.29-.24.94.94,0,0,1,.4-.09.77.77,0,0,1,.62.29,1.13,1.13,0,0,1,.22.73Z"/><path class="cls-1" d="M31.76,95.21a1.56,1.56,0,0,0-.24-.52,1.29,1.29,0,0,0-.47-.35,2,2,0,0,0-.71-.11,5.34,5.34,0,0,0-.86.06c-.25,0-.45.09-.6.12v3.53h.66V94.87a.42.42,0,0,1,.11,0,.52.52,0,0,1,.18,0,.78.78,0,0,1,.22,0h.21a1,1,0,0,1,.44.07.52.52,0,0,1,.27.22.69.69,0,0,1,.15.38,2.38,2.38,0,0,1,.05.56v1.91h.66v-2A3.08,3.08,0,0,0,31.76,95.21Z"/><path class="cls-1" d="M35.12,96.58a.65.65,0,0,0-.22-.31,1.33,1.33,0,0,0-.34-.22l-.47-.2-.33-.13a1.7,1.7,0,0,1-.24-.14.3.3,0,0,1-.14-.17.31.31,0,0,1,0-.2.33.33,0,0,1,.2-.34,1,1,0,0,1,.47-.11,3,3,0,0,1,.55,0,3.26,3.26,0,0,1,.33.13l.11-.56-.15-.06-.24,0-.29,0a1.62,1.62,0,0,0-.31,0,1.49,1.49,0,0,0-1,.29.91.91,0,0,0-.35.77.82.82,0,0,0,.08.4A.68.68,0,0,0,33,96a1.36,1.36,0,0,0,.33.22l.4.16a2.48,2.48,0,0,1,.62.31.44.44,0,0,1,.2.38.36.36,0,0,1-.2.35,1.67,1.67,0,0,1-.58.09,2.42,2.42,0,0,1-.66-.07l-.36-.13-.11.57.36.1a2.57,2.57,0,0,0,.77.1,1.89,1.89,0,0,0,1.05-.26A.88.88,0,0,0,35.2,97,.91.91,0,0,0,35.12,96.58Z"/><path class="cls-1" d="M38.62,94.67a1.39,1.39,0,0,0-1.13-.46,1.84,1.84,0,0,0-.62.11,1.5,1.5,0,0,0-.53.37,2,2,0,0,0-.38.6,2.37,2.37,0,0,0-.13.83,2.51,2.51,0,0,0,.11.77,1.46,1.46,0,0,0,.33.6,1.63,1.63,0,0,0,.56.4,2.33,2.33,0,0,0,.84.15,2.37,2.37,0,0,0,.67-.08l.42-.12-.09-.55a2.27,2.27,0,0,1-.36.11,3,3,0,0,1-.58,0,1.2,1.2,0,0,1-.9-.29,1.43,1.43,0,0,1-.32-.85H39s0-.09,0-.13v-.11A2.2,2.2,0,0,0,38.62,94.67Zm-2.1,1.11a1.26,1.26,0,0,1,.1-.38.7.7,0,0,1,.18-.31.78.78,0,0,1,.29-.24.91.91,0,0,1,.4-.09.8.8,0,0,1,.62.29,1.2,1.2,0,0,1,.22.73Z"/><path class="cls-1" d="M44.4,93.09a12.94,12.94,0,0,1-.61,1.16c-.22.4-.44.78-.66,1.15-.24-.37-.47-.75-.69-1.15s-.42-.78-.6-1.16h-.78c.23.47.51.94.8,1.43s.58,1,.91,1.48v1.94h.67V96c.33-.49.62-1,.91-1.46s.55-1,.8-1.43Z"/><path class="cls-1" d="M48.5,95.34a1.64,1.64,0,0,0-.35-.6,1.65,1.65,0,0,0-.54-.4,1.77,1.77,0,0,0-.69-.13,1.85,1.85,0,0,0-.7.13,1.58,1.58,0,0,0-.52.4,1.68,1.68,0,0,0-.37.6,2.44,2.44,0,0,0,0,1.57,1.68,1.68,0,0,0,.37.6,1.35,1.35,0,0,0,.52.4,1.85,1.85,0,0,0,.7.13,1.77,1.77,0,0,0,.69-.13,1.41,1.41,0,0,0,.54-.4,1.64,1.64,0,0,0,.35-.6,2.44,2.44,0,0,0,0-1.57Zm-.82,1.77a1,1,0,0,1-.76.36.92.92,0,0,1-.75-.36,1.62,1.62,0,0,1-.27-1,1.65,1.65,0,0,1,.27-1,.91.91,0,0,1,.75-.34.94.94,0,0,1,.76.34,1.65,1.65,0,0,1,.27,1A1.62,1.62,0,0,1,47.68,97.11Z"/><path class="cls-1" d="M51.79,94.3v3.08s0,0-.11,0a.5.5,0,0,1-.18,0h-.22a.71.71,0,0,1-.2,0,.78.78,0,0,1-.71-.29,1.6,1.6,0,0,1-.22-.94V94.3H49.5v2a2.88,2.88,0,0,0,.09.69,1.42,1.42,0,0,0,.24.53,1.21,1.21,0,0,0,.47.35A2,2,0,0,0,51,98a5.26,5.26,0,0,0,.84-.06c.25,0,.45-.09.6-.12V94.3Z"/><path class="cls-1" d="M55.52,94.3a1.2,1.2,0,0,0-.2,0l-.22,0h-.18a3.77,3.77,0,0,0-.78.07,3.66,3.66,0,0,0-.56.15v3.49h.63v-3l.24-.06.36,0a2.77,2.77,0,0,1,.46,0,.7.7,0,0,1,.25.08l.13-.59Z"/><path class="cls-1" d="M57.45,93.09v.6H59v4.25h.67V93.69h1.53v-.6Z"/><path class="cls-1" d="M64.73,95.21a1.26,1.26,0,0,0-.25-.52,1.11,1.11,0,0,0-.46-.35,2,2,0,0,0-.71-.11,1.53,1.53,0,0,0-.42,0,1.12,1.12,0,0,0-.38.11V92.5l-.65.13v5.31h.65v-3l.11,0a.53.53,0,0,1,.18,0l.22,0h.22a1,1,0,0,1,.44.07.52.52,0,0,1,.27.22.69.69,0,0,1,.14.38,2.34,2.34,0,0,1,.06.56v1.91h.65v-2A3.77,3.77,0,0,0,64.73,95.21Z"/><path class="cls-1" d="M66.48,92.9a.47.47,0,0,0-.31-.11.46.46,0,0,0-.29.11.49.49,0,0,0-.13.31.44.44,0,0,0,.13.31.39.39,0,0,0,.29.13.4.4,0,0,0,.31-.13.43.43,0,0,0,.11-.31A.47.47,0,0,0,66.48,92.9Zm-.62,1.4v3.64h.66V94.3Z"/><path class="cls-1" d="M70.5,95.21a1.39,1.39,0,0,0-.24-.52,1.21,1.21,0,0,0-.47-.35,2,2,0,0,0-.71-.11,5.13,5.13,0,0,0-.85.06,5.2,5.2,0,0,0-.6.12v3.53h.65V94.87a.54.54,0,0,1,.11,0,.55.55,0,0,1,.18,0,.82.82,0,0,1,.22,0H69a1,1,0,0,1,.44.07.56.56,0,0,1,.27.22.89.89,0,0,1,.16.38,4.45,4.45,0,0,1,0,.56v1.91h.65v-2A2.6,2.6,0,0,0,70.5,95.21Z"/><path class="cls-1" d="M74.3,97.42a4.48,4.48,0,0,0-.43-.57c-.15-.18-.29-.34-.46-.51s-.31-.29-.43-.4c.1-.12.23-.25.38-.4l.4-.43c.14-.13.27-.28.4-.42l.34-.39h-.76c-.07.1-.18.22-.29.35l-.38.4-.4.4c-.13.15-.26.27-.37.38V92.5l-.65.13v5.31h.65V96.2a3.76,3.76,0,0,1,.42.33,4.31,4.31,0,0,1,.42.43,5,5,0,0,1,.4.49c.13.17.25.33.35.49h.76A4.75,4.75,0,0,0,74.3,97.42Z"/><path class="cls-1" d="M75.92,92.9a.42.42,0,0,0-.29-.11.41.41,0,0,0-.42.42.37.37,0,0,0,.13.31.35.35,0,0,0,.29.13.36.36,0,0,0,.29-.13.37.37,0,0,0,.13-.31A.4.4,0,0,0,75.92,92.9Zm-.62,1.4v3.64H76V94.3Z"/><path class="cls-1" d="M80,95.21a1.25,1.25,0,0,0-.24-.52,1.17,1.17,0,0,0-.46-.35,2.14,2.14,0,0,0-.72-.11,5.42,5.42,0,0,0-1.44.18v3.53h.64V94.87l.12,0a.52.52,0,0,1,.18,0,.72.72,0,0,1,.22,0h.2a.92.92,0,0,1,.44.07.5.5,0,0,1,.29.22,1,1,0,0,1,.15.38,3.06,3.06,0,0,1,0,.56v1.91H80v-2A3.08,3.08,0,0,0,80,95.21Z"/><path class="cls-1" d="M83.46,94.29a4.5,4.5,0,0,0-.78-.06,1.9,1.9,0,0,0-.75.13,1.5,1.5,0,0,0-.56.38,1.56,1.56,0,0,0-.35.58,2.37,2.37,0,0,0-.13.73,2.44,2.44,0,0,0,.13.78,1.62,1.62,0,0,0,.35.55,1.36,1.36,0,0,0,.5.33,1.84,1.84,0,0,0,.62.11,2,2,0,0,0,.57-.09,1.82,1.82,0,0,0,.33-.15v.16a1,1,0,0,1-.26.73,1.14,1.14,0,0,1-.84.24,2.2,2.2,0,0,1-.58-.07,3.08,3.08,0,0,1-.49-.13l-.11.56a3.16,3.16,0,0,0,.53.13,2.65,2.65,0,0,0,.63.07,1.92,1.92,0,0,0,1.33-.38A1.52,1.52,0,0,0,84,97.67V94.41ZM83.39,97a3,3,0,0,1-.35.16,1.49,1.49,0,0,1-.47.07,1.07,1.07,0,0,1-.39-.07.77.77,0,0,1-.31-.22,1,1,0,0,1-.21-.36,1.49,1.49,0,0,1-.08-.55,1.39,1.39,0,0,1,.28-.91,1.05,1.05,0,0,1,.82-.34,2.46,2.46,0,0,1,.43,0,1.06,1.06,0,0,1,.28.06Z"/><path class="cls-1" d="M90.1,95.76a1.29,1.29,0,0,0-.67-.4,1.25,1.25,0,0,0,.51-.38,1.16,1.16,0,0,0,.18-.66,1.27,1.27,0,0,0-.15-.6,1.18,1.18,0,0,0-.43-.4,1.67,1.67,0,0,0-.64-.22,6.39,6.39,0,0,0-.78,0h-.31l-.35,0c-.11,0-.22,0-.34,0l-.31.06v4.71l.31.06c.12,0,.23,0,.34,0l.35,0h.31a3.09,3.09,0,0,0,1.71-.36,1.26,1.26,0,0,0,.53-1.09A1,1,0,0,0,90.1,95.76Zm-2.62-2.13.27,0h.4a3.47,3.47,0,0,1,.49,0,1.44,1.44,0,0,1,.4.13.59.59,0,0,1,.28.23.58.58,0,0,1,.11.35.85.85,0,0,1-.09.38,1.08,1.08,0,0,1-.28.24,1.31,1.31,0,0,1-.38.13c-.14,0-.31,0-.47,0h-.73ZM89.54,97a.89.89,0,0,1-.33.27,1.53,1.53,0,0,1-.47.13,2.69,2.69,0,0,1-.57,0h-.51a.55.55,0,0,0-.18,0V95.69h.89c.18,0,.37,0,.53,0a1.34,1.34,0,0,1,.4.15.6.6,0,0,1,.27.25.88.88,0,0,1,.09.41A.74.74,0,0,1,89.54,97Z"/><path class="cls-1" d="M94.25,96.07a2.21,2.21,0,0,0-.38-1.4,1.42,1.42,0,0,0-1.13-.46,1.84,1.84,0,0,0-.62.11,1.5,1.5,0,0,0-.53.37,1.67,1.67,0,0,0-.38.6,2.37,2.37,0,0,0-.13.83,2.51,2.51,0,0,0,.11.77,1.58,1.58,0,0,0,.33.6,1.74,1.74,0,0,0,.56.4,2.3,2.3,0,0,0,.82.15,2.42,2.42,0,0,0,.69-.08l.42-.12-.09-.55a2.27,2.27,0,0,1-.36.11,3.21,3.21,0,0,1-.58,0,1.07,1.07,0,0,1-1.22-1.14h2.49Zm-2.48-.29a.86.86,0,0,1,.1-.38.7.7,0,0,1,.18-.31.78.78,0,0,1,.29-.24.92.92,0,0,1,.38-.09.81.81,0,0,1,.64.29,1.2,1.2,0,0,1,.22.73Z"/><path class="cls-1" d="M96,93.32a.74.74,0,0,1,.64-.25,3.67,3.67,0,0,1,.38,0l.24.09.11-.56a1.52,1.52,0,0,0-.29-.07,1.68,1.68,0,0,0-.49-.06,1.34,1.34,0,0,0-1.08.39A1.55,1.55,0,0,0,95.2,94v4h.65V94.85h1.4V94.3h-1.4V94A1.12,1.12,0,0,1,96,93.32Z"/><path class="cls-1" d="M101,95.34a1.77,1.77,0,0,0-.34-.6,1.59,1.59,0,0,0-.55-.4,1.7,1.7,0,0,0-.69-.13,1.63,1.63,0,0,0-.67.13,1.59,1.59,0,0,0-.55.4,1.81,1.81,0,0,0-.36.6,2.44,2.44,0,0,0,0,1.57,1.81,1.81,0,0,0,.36.6,1.37,1.37,0,0,0,.55.4,1.63,1.63,0,0,0,.67.13,1.7,1.7,0,0,0,.69-.13,1.37,1.37,0,0,0,.55-.4,1.77,1.77,0,0,0,.34-.6,2.44,2.44,0,0,0,0-1.57Zm-.82,1.77a.92.92,0,0,1-.76.36.94.94,0,0,1-.75-.36,1.62,1.62,0,0,1-.27-1,1.65,1.65,0,0,1,.27-1,.92.92,0,0,1,.75-.34.9.9,0,0,1,.76.34,1.58,1.58,0,0,1,.28,1A1.55,1.55,0,0,1,100.16,97.11Z"/><path class="cls-1" d="M104,94.3a1.62,1.62,0,0,0-.2,0l-.22,0h-.18a3.81,3.81,0,0,0-.79.07,3.66,3.66,0,0,0-.56.15v3.49h.65v-3a.87.87,0,0,1,.24-.06,2.07,2.07,0,0,1,.35,0,3,3,0,0,1,.47,0,1.23,1.23,0,0,1,.25.08l.11-.59Z"/><path class="cls-1" d="M107.72,96.07a2.14,2.14,0,0,0-.39-1.4,1.39,1.39,0,0,0-1.12-.46,1.84,1.84,0,0,0-.62.11,1.67,1.67,0,0,0-.55.37,2,2,0,0,0-.36.6,2.36,2.36,0,0,0-.15.83,2.51,2.51,0,0,0,.11.77,1.29,1.29,0,0,0,.35.6,1.39,1.39,0,0,0,.56.4A2.53,2.53,0,0,0,107,98a3.67,3.67,0,0,0,.42-.12l-.09-.55a1.83,1.83,0,0,1-.35.11,3,3,0,0,1-.58,0,1.16,1.16,0,0,1-.89-.29,1.26,1.26,0,0,1-.33-.85h2.5Zm-2.5-.29c0-.13.06-.26.09-.38a1.61,1.61,0,0,1,.19-.31,1.32,1.32,0,0,1,.29-.24,1,1,0,0,1,.4-.09.8.8,0,0,1,.63.29,1.13,1.13,0,0,1,.22.73Z"/><path class="cls-1" d="M113.1,93.09c-.18.38-.38.78-.6,1.16s-.43.78-.67,1.15c-.24-.37-.46-.75-.67-1.15s-.42-.78-.6-1.16h-.81c.26.47.53.94.81,1.43s.6,1,.91,1.48v1.94h.69V96c.31-.49.62-1,.91-1.46l.8-1.43Z"/><path class="cls-1" d="M117.22,95.34a1.84,1.84,0,0,0-.37-.6,1.61,1.61,0,0,0-.53-.4,1.9,1.9,0,0,0-1.38,0,1.9,1.9,0,0,0-.54.4,1.64,1.64,0,0,0-.35.6,2.44,2.44,0,0,0,0,1.57,1.64,1.64,0,0,0,.35.6,1.58,1.58,0,0,0,.54.4,1.9,1.9,0,0,0,1.38,0,1.38,1.38,0,0,0,.53-.4,1.84,1.84,0,0,0,.37-.6,2.63,2.63,0,0,0,0-1.57Zm-.84,1.77a.92.92,0,0,1-.75.36,1,1,0,0,1-.76-.36,1.62,1.62,0,0,1-.27-1,1.65,1.65,0,0,1,.27-1,.94.94,0,0,1,.76-.34.91.91,0,0,1,.75.34,1.65,1.65,0,0,1,.27,1A1.62,1.62,0,0,1,116.38,97.11Z"/><path class="cls-1" d="M120.51,94.3v3.08s-.07,0-.13,0a.39.39,0,0,1-.16,0H120a1.05,1.05,0,0,1-.93-.27,1.7,1.7,0,0,1-.2-.94V94.3h-.65v2a2.93,2.93,0,0,0,.07.69,1.85,1.85,0,0,0,.25.53,1.25,1.25,0,0,0,.46.35,2.16,2.16,0,0,0,.71.11,5.13,5.13,0,0,0,.85-.06c.26,0,.44-.09.61-.12V94.3Z"/><path class="cls-1" d="M123.46,93.09v.6H125v4.25h.67V93.69h1.53v-.6Z"/><path class="cls-1" d="M130.74,95.21a1.28,1.28,0,0,0-.26-.52,1.07,1.07,0,0,0-.45-.35,2.08,2.08,0,0,0-.71-.11,1.46,1.46,0,0,0-.42,0,1.06,1.06,0,0,0-.38.11V92.5l-.66.13v5.31h.66v-3l.11,0a.48.48,0,0,1,.18,0l.22,0h.22a1,1,0,0,1,.43.07.52.52,0,0,1,.27.22.69.69,0,0,1,.15.38,2.34,2.34,0,0,1,.06.56v1.91h.65v-2A4.88,4.88,0,0,0,130.74,95.21Z"/><path class="cls-1" d="M132.48,92.9a.46.46,0,0,0-.3-.11.48.48,0,0,0-.3.11.48.48,0,0,0-.12.31.44.44,0,0,0,.12.31.41.41,0,0,0,.3.13.41.41,0,0,0,.41-.44A.42.42,0,0,0,132.48,92.9Zm-.61,1.4v3.64h.63V94.3Z"/><path class="cls-1" d="M136.51,95.21a1.56,1.56,0,0,0-.24-.52,1.29,1.29,0,0,0-.47-.35,2,2,0,0,0-.71-.11,5.34,5.34,0,0,0-.86.06c-.25,0-.45.09-.6.12v3.53h.66V94.87a.42.42,0,0,1,.11,0,.52.52,0,0,1,.18,0,.78.78,0,0,1,.22,0H135a1,1,0,0,1,.44.07.52.52,0,0,1,.27.22.69.69,0,0,1,.15.38,2.38,2.38,0,0,1,0,.56v1.91h.66v-2A3.08,3.08,0,0,0,136.51,95.21Z"/><path class="cls-1" d="M140.31,97.42a4.58,4.58,0,0,0-.44-.57c-.14-.18-.29-.34-.45-.51l-.44-.4.38-.4c.13-.14.28-.29.4-.43a3.92,3.92,0,0,0,.4-.42c.13-.15.24-.28.35-.39h-.76l-.3.35-.38.4c-.13.13-.25.27-.4.4s-.25.27-.36.38V92.5l-.66.13v5.31h.66V96.2a5,5,0,0,1,.42.33,5.78,5.78,0,0,1,.42.43,5,5,0,0,1,.4.49c.12.17.25.33.34.49h.77C140.56,97.78,140.46,97.62,140.31,97.42Z"/><path class="cls-2" d="M84,7.23a9.71,9.71,0,0,0-.64-2,5.7,5.7,0,0,0-.55-1,7,7,0,0,0-2.71-2.11,11.9,11.9,0,0,0-8.48-.66,23.53,23.53,0,0,0-7,4l-6.3,4.62c-1,.78-2,1.53-3.07,2.28a20.91,20.91,0,0,0-3.13,2.34c1.2.24,2.51.08,3.71.28a28.47,28.47,0,0,1,3.86.81,71.33,71.33,0,0,1,7.44,2.63c5.53,2.18,11.07,4.38,16.6,6.53C84,19.05,85.24,13.05,84,7.23ZM68.13,9.7a.83.83,0,0,1,.5.18l1.6-1.27a.6.6,0,0,1-.08-.31.83.83,0,1,1,1.66,0,.4.4,0,0,1,0,.2l1.39.84a.76.76,0,0,1,.56-.26.86.86,0,0,1,.44.15l1.62-1.59a.66.66,0,0,1-.13-.4.83.83,0,0,1,1.66,0,.83.83,0,0,1-.82.84A.7.7,0,0,1,76.07,8l-1.6,1.57a1,1,0,0,1,.11.38.86.86,0,0,1-.86.86.83.83,0,0,1-.82-.86c0-.07,0-.15,0-.22l-1.36-.8a.76.76,0,0,1-.59.26A.74.74,0,0,1,70.48,9L68.9,10.21a.87.87,0,0,1,.07.35.83.83,0,0,1-1.65,0A.86.86,0,0,1,68.13,9.7Zm1.15,6.93H67.15v-4h2.13Zm2.77,0H69.9v-6.2h2.15Zm2.76,0H72.67V12.07h2.14Zm2.75,0H75.4V9.3h2.16Z"/><path class="cls-3" d="M65.33,49.83a.53.53,0,1,1-.52-.54A.53.53,0,0,1,65.33,49.83Z"/><rect class="cls-4" x="93.1" y="29.47" width="1.62" height="0.65"/><path class="cls-4" d="M91.85,30.66H96a.26.26,0,1,1,0,.51H91.85a.26.26,0,1,1,0-.51Z"/><path class="cls-4" d="M94.14,24.34a3.64,3.64,0,0,0,.76,1.37s0,0,0,.06a3.54,3.54,0,0,0-.35,1.12H93.28a2.59,2.59,0,0,0-.35-1.12v-.06a3.34,3.34,0,0,0,.78-1.37v1a.23.23,0,0,0-.09.2.31.31,0,0,0,.61,0,.25.25,0,0,0-.11-.22v-1Z"/><path class="cls-4" d="M91.7,22.94a.19.19,0,0,1-.19.19.19.19,0,0,1-.2-.19.2.2,0,1,1,.39,0Z"/><path class="cls-4" d="M91.83,24.06a.1.1,0,0,1,0,.07v.3a.07.07,0,0,1,0,0h-.32a0,0,0,0,1-.05,0v-.3c0-.05,0-.07.05-.07Z"/><path class="cls-4" d="M94.08,22.74s0,0,0,.05v.3s0,.07,0,.07h-.33a.14.14,0,0,1,0-.07v-.3a.12.12,0,0,1,0-.05Z"/><path class="cls-4" d="M96,24.47a0,0,0,0,1,0,0v-.3c0-.05,0-.07,0-.07h.3s0,0,0,.07v.3s0,0,0,0Z"/><path class="cls-4" d="M96.61,22.94a.21.21,0,0,1-.2.19.18.18,0,0,1-.19-.19.19.19,0,0,1,.19-.2A.21.21,0,0,1,96.61,22.94Z"/><path class="cls-4" d="M90.23,22.09V26.9h2.64a3.36,3.36,0,0,0-.33-1,.44.44,0,0,1,0-.51,3,3,0,0,0,.71-1.2.39.39,0,0,1,.35-.29h.51a.42.42,0,0,1,.42.29,2.91,2.91,0,0,0,.62,1.2.48.48,0,0,1,.11.51,3.24,3.24,0,0,0-.31,1h2.62V22.09Zm6.11,1.44a.59.59,0,0,1-.49-.29h-.29a1.13,1.13,0,0,1,.51.44h.22a.41.41,0,0,1,.38.38v.38a.38.38,0,0,1-.38.35h-.35a.39.39,0,0,1-.4-.35v-.38a.25.25,0,0,1,.06-.16,2.61,2.61,0,0,0-1.15-.59.39.39,0,0,1-.35.22h-.36a.46.46,0,0,1-.35-.22,2.11,2.11,0,0,0-1.12.59.41.41,0,0,1,0,.16v.38a.38.38,0,0,1-.38.35h-.36a.4.4,0,0,1-.4-.35v-.38a.4.4,0,0,1,.4-.38h.18a1.6,1.6,0,0,1,.56-.44H92a.6.6,0,0,1-.51.29.54.54,0,0,1-.56-.56A.56.56,0,0,1,92,22.73h1.37a.37.37,0,0,1,.36-.33h.36a.39.39,0,0,1,.37.33h1.36a.61.61,0,0,1,.51-.33.59.59,0,0,1,.55.57A.57.57,0,0,1,96.34,23.53Z"/><path class="cls-4" d="M98.8,20.42H89.06a.67.67,0,0,0-.69.67v7.08a.66.66,0,0,0,.69.68H98.8a.68.68,0,0,0,.67-.68V21.09A.7.7,0,0,0,98.8,20.42Zm-.58,7.08H89.61v-6h8.61Z"/><path class="cls-4" d="M103.24,20.07A14.45,14.45,0,0,0,100,16.52c-.86-.69-1.73-1.34-2.62-2-4.21-3-8.43-6.06-12.61-9.08,1.6,5.08,1,10.54.56,15.87-.31,3.53-.51,7.11-.69,10.65-.07,1.8-.16,3.54-.22,5.33,0,.18-.09.42.06.43a4.57,4.57,0,0,0,.6-.14c.34-.13.69-.22,1.07-.33.73-.2,1.47-.4,2.2-.55a83,83,0,0,0,8.74-2.51A23.34,23.34,0,0,0,102,31.67a6.73,6.73,0,0,0,2.35-2.42,6.56,6.56,0,0,0,.53-3A11.53,11.53,0,0,0,103.24,20.07Zm-3.15,8.1a1.31,1.31,0,0,1-1.29,1.29H95.09v.66H96a.8.8,0,0,1,.77.8.78.78,0,0,1-.77.78H91.85a.77.77,0,0,1-.8-.78.79.79,0,0,1,.8-.8h.89v-.66H89.06a1.27,1.27,0,0,1-1.29-1.29V21.09a1.29,1.29,0,0,1,1.29-1.29H98.8a1.32,1.32,0,0,1,1.29,1.29Z"/><path class="cls-5" d="M62.07,17.89a24.1,24.1,0,0,0-9.51-1.82C46,16.2,43.62,24.66,45.37,30L51.56,49.1a7.28,7.28,0,0,1,.21-.75,25.34,25.34,0,0,1,5-9c2-2.33,4.39-5.29,6.73-8.15v0l6.48-8,1.22-1.53.11-.11C68,20.29,64.73,19,62.07,17.89ZM52,31.7a2.45,2.45,0,0,1-2.46-2.44V25.21A2.44,2.44,0,0,1,52,22.77h4a2.4,2.4,0,0,1,2.42,2,6.78,6.78,0,0,0-.73.86v-.45a1.7,1.7,0,0,0-1.69-1.7H52a1.72,1.72,0,0,0-1.69,1.7v4.05A1.72,1.72,0,0,0,52,31h2.86l.69.74Zm6.59-2.44a2.47,2.47,0,0,1-1.39,2.26l.2-.45a21,21,0,0,1,1.24-2.55Zm1.78-3.78c-1.93,1.13-3.31,4.31-3.66,5.26l-.25.71-3-3.24.42-1.09,2.16,2.62c1.58-3,3.15-4.88,4.77-5.48Z"/><path class="cls-6" d="M82.46,44.84v6.53a.1.1,0,0,0,.11.11H93.05a.12.12,0,0,0,.11-.11V44.84Zm3.8,4.7a.44.44,0,0,1,0,.58.43.43,0,0,1-.31.13.39.39,0,0,1-.29-.13L84,48.46a.5.5,0,0,1-.16-.36.46.46,0,0,1,.16-.38L85.66,46a.52.52,0,0,1,.31-.12.47.47,0,0,1,.29.12.57.57,0,0,1,.11.29.54.54,0,0,1-.11.29L84.8,48.1ZM89,46.42l-1.51,3.63a.44.44,0,0,1-.4.27.42.42,0,0,1-.14-.06.35.35,0,0,1-.22-.21.29.29,0,0,1,0-.31l1.51-3.62a.43.43,0,0,1,.36-.26.65.65,0,0,1,.19,0,.35.35,0,0,1,.21.22A.27.27,0,0,1,89,46.42Zm2.82,2-1.65,1.66a.43.43,0,0,1-.31.13.35.35,0,0,1-.27-.13.39.39,0,0,1,0-.58L91,48.1l-1.43-1.48a.36.36,0,0,1-.13-.29.43.43,0,0,1,.4-.41.52.52,0,0,1,.31.12l1.65,1.68a.46.46,0,0,1,.15.38A.48.48,0,0,1,91.77,48.46Z"/><path class="cls-6" d="M93.05,43.39H82.57c-.08,0-.11.07-.11.14v.71h10.7v-.71C93.16,43.46,93.1,43.39,93.05,43.39Zm-2.51.72a.29.29,0,0,1-.31-.27.3.3,0,0,1,.31-.31.31.31,0,0,1,.29.31A.29.29,0,0,1,90.54,44.11Zm.83,0a.29.29,0,0,1-.31-.27.3.3,0,0,1,.31-.31.31.31,0,0,1,.3.31A.3.3,0,0,1,91.37,44.11Zm.84,0a.28.28,0,0,1-.29-.27.3.3,0,0,1,.29-.31.31.31,0,0,1,.31.31A.29.29,0,0,1,92.21,44.11Z"/><path class="cls-6" d="M94.29,36.52c-2.88.7-6.5,1.64-10,2.61v0l-5.22,1.4c-3.47,1-6.15,1.71-6.71,1.9,1.91,3,3.85,6,5.37,8.49.38.64.8,1.22,1.21,1.82s1.08,1.41,1.62,2a17.74,17.74,0,0,0,2,2,13.88,13.88,0,0,0,2.07,1.59,6.82,6.82,0,0,0,2.19.82,6.59,6.59,0,0,0,3.31-.57,10.63,10.63,0,0,0,2.58-1.31,11.51,11.51,0,0,0,2.22-1.89,12.73,12.73,0,0,0,1.66-2.38,11,11,0,0,0,.78-1.86l6.23-19.15A25.38,25.38,0,0,1,94.29,36.52ZM94,51.37a.92.92,0,0,1-.91.91H82.57a.92.92,0,0,1-.93-.91V43.53a.94.94,0,0,1,.93-1H93.05a.94.94,0,0,1,.91,1Z"/><path class="cls-3" d="M64.8,49.37a.46.46,0,1,0,.47.46A.46.46,0,0,0,64.8,49.37Z"/><path class="cls-3" d="M66.84,49.46a1.18,1.18,0,0,1-.71-1.2.33.33,0,0,0-.2-.38.27.27,0,0,0-.2-.07.32.32,0,0,0-.23.09,1.21,1.21,0,0,1-1.39,0,.32.32,0,0,0-.23-.09.77.77,0,0,0-.2,0,.5.5,0,0,0-.22.42,1.15,1.15,0,0,1-.68,1.2.4.4,0,0,0-.25.37.39.39,0,0,0,.25.38,1.12,1.12,0,0,1,.68,1.2.46.46,0,0,0,.22.4.65.65,0,0,0,.2,0,.41.41,0,0,0,.23-.07,1.13,1.13,0,0,1,1.39,0,.41.41,0,0,0,.23.07.54.54,0,0,0,.2,0,.37.37,0,0,0,.2-.4,1.15,1.15,0,0,1,.71-1.2.4.4,0,0,0,.24-.38A.4.4,0,0,0,66.84,49.46Zm-2,1.42a1.06,1.06,0,1,1,1.06-1.05A1.06,1.06,0,0,1,64.8,50.88Z"/><path class="cls-3" d="M83.66,59.16c-4.46-3-7.28-7.77-10.1-12.33-3-4.88-6.19-9.7-9.36-14.45-2,2.65-4.31,5-6.37,7.68a27.34,27.34,0,0,0-4.89,8.64,7.45,7.45,0,0,0-.38,2.71c.25,2.59,2.73,5,4.84,6.3,2.42,1.49,5.42,1.71,8.21,1.74H67l17-.07C83.88,59.29,83.77,59.24,83.66,59.16ZM59.31,49.9a5.51,5.51,0,0,1,5.49-5.57,5.42,5.42,0,0,1,1.21.15.29.29,0,0,1,.23.16.38.38,0,0,1,.07.31.41.41,0,0,1-.4.31,5,5,0,0,0-1.11-.11,4.67,4.67,0,0,0-4.67,4.68.44.44,0,0,1-.4.43A.38.38,0,0,1,59.31,49.9Zm8.28,4.68a5.73,5.73,0,0,1-2.79.74,5.49,5.49,0,0,1-5.24-3.82.58.58,0,0,1,0-.31.44.44,0,0,1,.24-.2H60a.41.41,0,0,1,.39.26A4.61,4.61,0,0,0,64.8,54.5a4.7,4.7,0,0,0,2.37-.63.4.4,0,0,1,.22,0,.37.37,0,0,1,.33.2A.4.4,0,0,1,67.59,54.58Zm-.44-3.68a.39.39,0,0,0-.25.42,1.17,1.17,0,0,1-.59,1.15,1.08,1.08,0,0,1-.58.14,1.28,1.28,0,0,1-.69-.22.44.44,0,0,0-.24-.09.51.51,0,0,0-.25.09,1.27,1.27,0,0,1-.67.22,1.15,1.15,0,0,1-.6-.14,1.25,1.25,0,0,1-.57-1.15.43.43,0,0,0-.23-.42,1.14,1.14,0,0,1-.71-1.07,1.19,1.19,0,0,1,.71-1.08.42.42,0,0,0,.23-.41,1.25,1.25,0,0,1,.57-1.15,1.4,1.4,0,0,1,.6-.15,1.27,1.27,0,0,1,.67.22.43.43,0,0,0,.25.09.38.38,0,0,0,.24-.09,1.34,1.34,0,0,1,.69-.22,1.32,1.32,0,0,1,.58.15,1.17,1.17,0,0,1,.59,1.15.38.38,0,0,0,.25.41,1.2,1.2,0,0,1,.69,1.08A1.15,1.15,0,0,1,67.15,50.9Zm1.71,2.64a.43.43,0,0,1-.31.13.4.4,0,0,1-.27-.11.43.43,0,0,1,0-.57,4.6,4.6,0,0,0,1.24-3.16,4.73,4.73,0,0,0-2.37-4.06.41.41,0,0,1-.14-.55.36.36,0,0,1,.33-.2.46.46,0,0,1,.2,0,5.52,5.52,0,0,1,2.76,4.77A5.46,5.46,0,0,1,68.86,53.54Z"/><path class="cls-7" d="M110.22,70V66.05H99.67a4,4,0,0,0-3,1.26,4.18,4.18,0,0,0-1.27,3V74.8a4.09,4.09,0,0,0,1.27,3,4,4,0,0,0,3,1.26h5.24a1.44,1.44,0,0,1,1,.41,1.4,1.4,0,0,1,.41,1v3l1.84.94H95.42v3.8h10.51A4,4,0,0,0,109,87a4.12,4.12,0,0,0,1.26-3v-4.5a4.12,4.12,0,0,0-1.26-3,4,4,0,0,0-3-1.26h-5.24a1.41,1.41,0,0,1-1.43-1.37V70Z"/><path class="cls-7" d="M127.44,73.94a.81.81,0,0,1,.29-.65,1.08,1.08,0,0,1,.7-.29h3.64V70.46h-4.3a3.78,3.78,0,0,0-3.72,3.73v13.9h3.43V80.28h3.93v-2.7h-5.23l1.35-.65v-3Z"/><path class="cls-7" d="M137.79,85.31A1.07,1.07,0,0,1,137,85a1,1,0,0,1-.33-.77V78.44h3.23v-3h-3.23V70.55H133V83.92a3.78,3.78,0,0,0,1.18,2.86A3.7,3.7,0,0,0,137,88h3.56V85.23h-2.74Z"/><path class="cls-7" d="M119.31,75.67H115a3.17,3.17,0,0,0-3.17,3.17V85A3.17,3.17,0,0,0,115,88.17h4.31A3.18,3.18,0,0,0,122.49,85V78.84A3.17,3.17,0,0,0,119.31,75.67ZM119.6,85a.34.34,0,0,1-.29.29h-5.82l1.2-.62V78.84a.27.27,0,0,1,.27-.28h4.35a.28.28,0,0,1,.29.28Z"/><path class="cls-8" d="M89.19,74.55H79.74l.05-2.37a1.7,1.7,0,0,1,.28-1,3.23,3.23,0,0,1,.37-.37,1,1,0,0,1,.53-.12h8.1l0-4.62h-9a13.1,13.1,0,0,0-2.25.16,3.44,3.44,0,0,0-1.76.86A3.48,3.48,0,0,0,75,69a11.72,11.72,0,0,0-.2,2.21V82.94c0,.45,0,.9,0,1.31a8.77,8.77,0,0,0,.2,1.14,3.42,3.42,0,0,0,.53,1,3.67,3.67,0,0,0,.9.86,5.55,5.55,0,0,0,1.19.66,6,6,0,0,0,1.19.24,9.88,9.88,0,0,0,1.22,0c.41,0,.86,0,1.35,0h7.65V83.39H81.67a4.08,4.08,0,0,0-.78,0,1,1,0,0,1-.65-.25,1.14,1.14,0,0,1-.5-.94l0-2.61h9.45V74.55Z"/><path class="cls-8" d="M24.77,69.07a3.41,3.41,0,0,0-1.1-1.92,3.7,3.7,0,0,0-1.64-1A7.92,7.92,0,0,0,20.15,66H14.63c-.45,0-.86,0-1.27,0a4.9,4.9,0,0,0-1.14.16,3.76,3.76,0,0,0-1.07.41,3.19,3.19,0,0,0-.9.78,4.08,4.08,0,0,0-.65,1,8.67,8.67,0,0,0-.33,1,5.05,5.05,0,0,0-.08,1.1V88.17H14.1V71.77a.53.53,0,0,1,0-.28,2.69,2.69,0,0,1,.16-.29.92.92,0,0,1,.74-.33h3.8a2.69,2.69,0,0,1,.57,0,.76.76,0,0,1,.45.29,1,1,0,0,1,.25.7v3.8H16.18v4.87h3.93v7.6H25V71.61A9.88,9.88,0,0,0,24.77,69.07Z"/><path class="cls-8" d="M44,68.57A5.32,5.32,0,0,0,42.82,67a4,4,0,0,0-1.56-.82A7.35,7.35,0,0,0,39.45,66H28.3V88.14h11a9.14,9.14,0,0,0,2.33-.3,3.72,3.72,0,0,0,1.84-1.34,4,4,0,0,0,.66-1.19,4.07,4.07,0,0,0,.2-1.34V70.54A5.3,5.3,0,0,0,44,68.57ZM39.29,82.28h0a.84.84,0,0,1-.36.71,2,2,0,0,1-.46.23,2.28,2.28,0,0,1-.52,0H33.16V70.92l-2-2.26,1.76.89,2.69,1.24h2.33a1.37,1.37,0,0,1,1,.33,1.11,1.11,0,0,1,.36.86Z"/><path class="cls-8" d="M62.77,68.57A4.44,4.44,0,0,0,61.64,67a4.25,4.25,0,0,0-1.57-.82,7.23,7.23,0,0,0-1.8-.16H47.12V88.14H58.05a9.23,9.23,0,0,0,2.35-.3,3.61,3.61,0,0,0,1.84-1.34,3.74,3.74,0,0,0,.65-1.19A4.09,4.09,0,0,0,63.11,84V70.54A4.67,4.67,0,0,0,62.77,68.57ZM58.11,82.28a.9.9,0,0,1-.37.71,1.07,1.07,0,0,1-.45.23,1.81,1.81,0,0,1-.57,0H52V70.92l-2-2.26,1.75.89,2.71,1.24H56.8a1.48,1.48,0,0,1,.94.33,1.16,1.16,0,0,1,.37.86Z"/><rect class="cls-8" x="66.7" y="66.01" width="4.74" height="22.13"/><path class="cls-9" d="M114.14,65.3a.9.9,0,0,1,.26-.13,1.78,1.78,0,0,1,.34,0,2.1,2.1,0,0,1,.51.06.65.65,0,0,1,.29.14l.26-.42s-.08-.05-.15-.09l-.22-.07a.77.77,0,0,0-.27-.07,1.72,1.72,0,0,0-.33,0,1.87,1.87,0,0,0-.64.09,1.57,1.57,0,0,0-.47.22,1.07,1.07,0,0,0-.29.38,1.36,1.36,0,0,0-.09.47.84.84,0,0,0,.07.37.62.62,0,0,0,.17.27.66.66,0,0,0,.21.2l.28.15a1.75,1.75,0,0,1,.27.16.93.93,0,0,1,.22.14.27.27,0,0,1,.14.19.44.44,0,0,1,.06.23.7.7,0,0,1-.07.35.77.77,0,0,1-.22.22.84.84,0,0,1-.31.12,2.09,2.09,0,0,1-.35,0,1.41,1.41,0,0,1-.58-.09,3.2,3.2,0,0,1-.35-.16l-.25.43a.35.35,0,0,0,.15.09.8.8,0,0,0,.23.1,2.09,2.09,0,0,0,.33.07,1.63,1.63,0,0,0,.4,0,2,2,0,0,0,.62-.07,1.41,1.41,0,0,0,.51-.24,1.24,1.24,0,0,0,.34-.38,1.19,1.19,0,0,0,.11-.54.74.74,0,0,0-.07-.39,1.18,1.18,0,0,0-.16-.29,1.55,1.55,0,0,0-.28-.2l-.31-.18a1.49,1.49,0,0,1-.25-.13.67.67,0,0,1-.2-.12.59.59,0,0,1-.11-.19.39.39,0,0,1,0-.23.45.45,0,0,1,.07-.29A.44.44,0,0,1,114.14,65.3Z"/><path class="cls-9" d="M117.18,64.6a.34.34,0,0,0-.22-.09.36.36,0,0,0-.25.11.38.38,0,0,0-.11.29.24.24,0,0,0,.09.22.26.26,0,0,0,.2.08.36.36,0,0,0,.25-.1.35.35,0,0,0,0-.51Zm-.71,1.13-.71,2.93h.53l.71-2.93Z"/><path class="cls-9" d="M119.84,66.24a.85.85,0,0,0-.17-.31.69.69,0,0,0-.29-.18,1.2,1.2,0,0,0-.44-.07c-.16,0-.34,0-.54,0a5.27,5.27,0,0,0-.57.14l-.67,2.8h.53l.6-2.47a.62.62,0,0,1,.22,0,1.32,1.32,0,0,1,.29,0,.53.53,0,0,1,.45.15.55.55,0,0,1,.13.36c0,.11,0,.2,0,.33s-.06.2-.1.31l-.32,1.38h.52l.37-1.49c0-.09,0-.18.05-.29a1.23,1.23,0,0,0,0-.27A1.32,1.32,0,0,0,119.84,66.24Z"/><path class="cls-9" d="M122.51,65.7a1.86,1.86,0,0,0-.34,0,1.8,1.8,0,0,0-.75.16,1.7,1.7,0,0,0-.55.44,1.91,1.91,0,0,0-.36.62,3.67,3.67,0,0,0-.11.75,1.34,1.34,0,0,0,.09.45.87.87,0,0,0,.2.35.78.78,0,0,0,.37.23,1.1,1.1,0,0,0,.47.08,2,2,0,0,0,.51-.06l.33-.13,0-.45a.19.19,0,0,1-.11.05,1.59,1.59,0,0,1-.18.08,1.38,1.38,0,0,1-.2,0,.82.82,0,0,1-.22,0,1.18,1.18,0,0,1-.35,0,1,1,0,0,1-.2-.15.59.59,0,0,1-.11-.24,2.48,2.48,0,0,1,0-.27A1.61,1.61,0,0,1,121,67a1.23,1.23,0,0,1,.22-.46,1.33,1.33,0,0,1,.38-.33,1.27,1.27,0,0,1,.51-.12,1.35,1.35,0,0,1,.31,0l.2.07.2-.43A.9.9,0,0,0,122.51,65.7Z"/><path class="cls-9" d="M125.42,66.12a.5.5,0,0,0-.16-.22.5.5,0,0,0-.26-.17,1.62,1.62,0,0,0-.4,0,1.36,1.36,0,0,0-.71.16,1.66,1.66,0,0,0-.54.44,2.1,2.1,0,0,0-.33.65,2.19,2.19,0,0,0-.13.77.92.92,0,0,0,.08.4.79.79,0,0,0,.2.34,1,1,0,0,0,.34.22,1.29,1.29,0,0,0,.49.08,1.74,1.74,0,0,0,.6-.08,1,1,0,0,0,.37-.12l-.06-.44s0,0-.11.05a.91.91,0,0,0-.18.08,1.46,1.46,0,0,1-.22,0,.9.9,0,0,1-.23,0,1.92,1.92,0,0,1-.38,0,.61.61,0,0,1-.24-.14.44.44,0,0,1-.11-.2.53.53,0,0,1,0-.26v-.11h.46l.45-.06a3.52,3.52,0,0,0,.44-.11,1.15,1.15,0,0,0,.38-.2,1.18,1.18,0,0,0,.26-.31,1.09,1.09,0,0,0,.09-.43A.72.72,0,0,0,125.42,66.12Zm-.56.65a.82.82,0,0,1-.31.22l-.47.11a5.74,5.74,0,0,1-.6,0,1.88,1.88,0,0,1,.14-.38,2,2,0,0,1,.24-.33.85.85,0,0,1,.31-.21.74.74,0,0,1,.36-.09.53.53,0,0,1,.2,0,.42.42,0,0,1,.15.07.34.34,0,0,1,.05.11.3.3,0,0,1,0,.11A.62.62,0,0,1,124.86,66.77Z"/><path class="cls-9" d="M129.81,65.22a.68.68,0,0,0-.18-.27.87.87,0,0,0-.31-.2,1.35,1.35,0,0,0-.48-.07,1.48,1.48,0,0,0-.67.14,1.46,1.46,0,0,0-.25.13.53.53,0,0,0-.2.15l.18.41a.43.43,0,0,1,.14-.12l.2-.13a.75.75,0,0,1,.24-.09,1.65,1.65,0,0,1,.31,0,.59.59,0,0,1,.42.13.6.6,0,0,1,.13.36.77.77,0,0,1-.11.4,1.5,1.5,0,0,1-.26.33,2.17,2.17,0,0,1-.36.31l-.42.33a3.19,3.19,0,0,0-.4.33,2.45,2.45,0,0,0-.36.36,2.69,2.69,0,0,0-.28.46,1.77,1.77,0,0,0-.16.52h2.29l.11-.43h-1.71a1,1,0,0,1,.15-.28,3,3,0,0,1,.25-.25,3.58,3.58,0,0,1,.29-.27,2.55,2.55,0,0,0,.31-.24,5.07,5.07,0,0,0,.46-.35,2.49,2.49,0,0,0,.38-.34,1.2,1.2,0,0,0,.25-.42,1.44,1.44,0,0,0,.09-.53A1,1,0,0,0,129.81,65.22Z"/><path class="cls-9" d="M132.94,65a.85.85,0,0,0-.71-.29,1,1,0,0,0-.58.14,1.65,1.65,0,0,0-.46.35,2.75,2.75,0,0,0-.36.55c-.09.2-.18.4-.26.61s-.11.44-.14.66a3,3,0,0,0-.06.58,1.45,1.45,0,0,0,.24.89.84.84,0,0,0,.71.29,1.44,1.44,0,0,0,.56-.12,1.79,1.79,0,0,0,.48-.39,2.75,2.75,0,0,0,.34-.52,4.26,4.26,0,0,0,.26-.62c0-.22.11-.44.14-.66a3.38,3.38,0,0,0,.06-.6A1.51,1.51,0,0,0,132.94,65Zm-.36,1.47c0,.19-.08.37-.11.55s-.13.34-.2.49a1.58,1.58,0,0,1-.26.42.81.81,0,0,1-.29.29.62.62,0,0,1-.33.11.35.35,0,0,1-.36-.18,1.31,1.31,0,0,1-.11-.6,4.91,4.91,0,0,1,0-.53c0-.18.07-.36.12-.55a3,3,0,0,1,.44-.91,1.21,1.21,0,0,1,.31-.29.62.62,0,0,1,.33-.11.35.35,0,0,1,.36.18,1.21,1.21,0,0,1,.11.61A3.26,3.26,0,0,1,132.58,66.44Z"/><path class="cls-9" d="M136.11,65a.83.83,0,0,0-.71-.29,1,1,0,0,0-.57.14,1.45,1.45,0,0,0-.47.35,2.35,2.35,0,0,0-.35.55,3.56,3.56,0,0,0-.25.61q-.09.33-.15.66a4,4,0,0,0-.05.58,1.46,1.46,0,0,0,.22.89.88.88,0,0,0,.71.29,1.58,1.58,0,0,0,.58-.12,1.67,1.67,0,0,0,.45-.39,2.44,2.44,0,0,0,.37-.52,5.73,5.73,0,0,0,.25-.62q.09-.33.15-.66a4.54,4.54,0,0,0,.05-.6A1.37,1.37,0,0,0,136.11,65Zm-.35,1.47a2.59,2.59,0,0,1-.13.55,4.09,4.09,0,0,1-.18.49,1.87,1.87,0,0,1-.25.42,1.16,1.16,0,0,1-.3.29.62.62,0,0,1-.34.11.37.37,0,0,1-.36-.18,1.2,1.2,0,0,1-.1-.6,2.41,2.41,0,0,1,0-.53,2.91,2.91,0,0,1,.13-.55,1.9,1.9,0,0,1,.18-.49,1.87,1.87,0,0,1,.25-.42,1.21,1.21,0,0,1,.31-.29.52.52,0,0,1,.33-.11.4.4,0,0,1,.37.18,1.58,1.58,0,0,1,.09.61A4.92,4.92,0,0,1,135.76,66.44Z"/><path class="cls-9" d="M137.31,64.68l-.11.47h1.93a4.51,4.51,0,0,0-.42.44,6.4,6.4,0,0,0-.44.54l-.44.62c-.12.22-.27.46-.38.68s-.23.45-.33.67a4.68,4.68,0,0,0-.23.65h.58a7.54,7.54,0,0,1,.44-1.09c.18-.36.4-.71.6-1a9.59,9.59,0,0,1,.65-.88,6.79,6.79,0,0,1,.59-.6l.1-.47Z"/></svg>