<svg width="17" height="21" viewBox="0 0 17 21" fill="none" xmlns="http://www.w3.org/2000/svg">
<path d="M12.101 7.14446V5.04446C12.101 3.05636 10.4891 1.44446 8.501 1.44446C6.5129 1.44446 4.901 3.05636 4.901 5.04446V7.14446" stroke="#686868" stroke-width="2" stroke-miterlimit="10" stroke-linecap="square"/>
<path d="M13.9009 19.4444H3.10088C2.43818 19.4444 1.90088 18.9071 1.90088 18.2444V9.84441C1.90088 9.18171 2.43818 8.64441 3.10088 8.64441H13.9009C14.5636 8.64441 15.1009 9.18171 15.1009 9.84441V18.2444C15.1009 18.9071 14.5636 19.4444 13.9009 19.4444Z" stroke="#686868" stroke-width="2" stroke-miterlimit="10" stroke-linecap="square"/>
<path d="M8.50098 14.9445V16.7445" stroke="#686868" stroke-width="2" stroke-miterlimit="10" stroke-linecap="square"/>
<path d="M8.50081 14.9445C9.49492 14.9445 10.3008 14.1386 10.3008 13.1445C10.3008 12.1504 9.49492 11.3445 8.50081 11.3445C7.50669 11.3445 6.70081 12.1504 6.70081 13.1445C6.70081 14.1386 7.50669 14.9445 8.50081 14.9445Z" stroke="#686868" stroke-width="2" stroke-miterlimit="10" stroke-linecap="square"/>
</svg>
