<svg xmlns="http://www.w3.org/2000/svg" width="14" height="15.996" viewBox="0 0 14 15.996">
  <g id="feespayment" transform="translate(0 -0.004)">
    <g id="Group_7" data-name="Group 7" transform="translate(0 0.004)">
      <g id="Group_6" data-name="Group 6">
        <path id="Path_19" data-name="Path 19" d="M12.954,13.091H10.742a2.738,2.738,0,0,1-2.527-2.909,2.738,2.738,0,0,1,2.527-2.909h2.211a.3.3,0,0,0,.224-.106.393.393,0,0,0,.092-.258V5.818a1.384,1.384,0,0,0-1.163-1.443L10.292.728A1.291,1.291,0,0,0,9.53.053,1.108,1.108,0,0,0,8.577.2L2.358,4.364H1.267A1.37,1.37,0,0,0,0,5.818v8.727A1.37,1.37,0,0,0,1.267,16h10.74a1.371,1.371,0,0,0,1.264-1.455v-1.09a.393.393,0,0,0-.092-.258.3.3,0,0,0-.224-.106ZM10.685,2.98l.688,1.384H8.619ZM3.614,4.364,8.9.824A.539.539,0,0,1,9.364.751a.64.64,0,0,1,.38.338h0L4.865,4.364Z" transform="translate(0 -0.004)" fill="#5e5e5e"/>
        <path id="Path_20" data-name="Path 20" d="M303.4,234.674h-2.545a2.182,2.182,0,0,0,0,4.364H303.4a1.092,1.092,0,0,0,1.091-1.091v-2.182a1.092,1.092,0,0,0-1.091-1.091Zm-2.545,2.909a.728.728,0,1,1,.513-.212.727.727,0,0,1-.513.212Z" transform="translate(-290.491 -226.678)" fill="#5e5e5e"/>
      </g>
    </g>
  </g>
</svg>
