<svg xmlns="http://www.w3.org/2000/svg" width="25" height="24.969" viewBox="0 0 25 24.969">
  <g id="calendar_1_" data-name="calendar (1)" transform="translate(0 -0.031)">
    <g id="Group_14798" data-name="Group 14798">
      <g id="Group_14797" data-name="Group 14797">
        <path id="Path_19337" data-name="Path 19337" d="M24.023,17.188A.977.977,0,0,0,25,16.211V5.859a3.911,3.911,0,0,0-3.906-3.906h-1.27V.977a.977.977,0,0,0-1.953,0v.977H13.428V.977a.977.977,0,0,0-1.953,0v.977H7.08V.977a.977.977,0,0,0-1.953,0v.977H3.906A3.911,3.911,0,0,0,0,5.859V21.094A3.911,3.911,0,0,0,3.906,25H21.094A3.911,3.911,0,0,0,25,21.094a.977.977,0,0,0-1.953,0,1.955,1.955,0,0,1-1.953,1.953H3.906a1.955,1.955,0,0,1-1.953-1.953V5.859A1.955,1.955,0,0,1,3.906,3.906H5.127v.977a.977.977,0,0,0,1.953,0V3.906h4.4v.977a.977.977,0,0,0,1.953,0V3.906h4.443v.977a.977.977,0,0,0,1.953,0V3.906h1.27a1.955,1.955,0,0,1,1.953,1.953V16.211A.977.977,0,0,0,24.023,17.188Z" fill="#0ab69f"/>
      </g>
    </g>
    <g id="Group_14800" data-name="Group 14800" transform="translate(5.127 9.277)">
      <g id="Group_14799" data-name="Group 14799">
        <circle id="Ellipse_3385" data-name="Ellipse 3385" cx="0.977" cy="0.977" r="0.977" transform="translate(0 0)" fill="#0ab69f"/>
      </g>
    </g>
    <g id="Group_14802" data-name="Group 14802" transform="translate(13.623 9.277)">
      <g id="Group_14801" data-name="Group 14801">
        <circle id="Ellipse_3386" data-name="Ellipse 3386" cx="0.977" cy="0.977" r="0.977" transform="translate(0 0)" fill="#0ab69f"/>
      </g>
    </g>
    <g id="Group_14804" data-name="Group 14804" transform="translate(17.871 9.277)">
      <g id="Group_14803" data-name="Group 14803">
        <circle id="Ellipse_3387" data-name="Ellipse 3387" cx="0.977" cy="0.977" r="0.977" transform="translate(0 0)" fill="#0ab69f"/>
      </g>
    </g>
    <g id="Group_14806" data-name="Group 14806" transform="translate(5.127 13.525)">
      <g id="Group_14805" data-name="Group 14805">
        <circle id="Ellipse_3388" data-name="Ellipse 3388" cx="0.977" cy="0.977" r="0.977" transform="translate(0 0)" fill="#0ab69f"/>
      </g>
    </g>
    <g id="Group_14808" data-name="Group 14808" transform="translate(5.127 17.773)">
      <g id="Group_14807" data-name="Group 14807">
        <circle id="Ellipse_3389" data-name="Ellipse 3389" cx="0.977" cy="0.977" r="0.977" transform="translate(0 0)" fill="#0ab69f"/>
      </g>
    </g>
    <g id="Group_14810" data-name="Group 14810" transform="translate(9.375 9.277)">
      <g id="Group_14809" data-name="Group 14809">
        <circle id="Ellipse_3390" data-name="Ellipse 3390" cx="0.977" cy="0.977" r="0.977" transform="translate(0 0)" fill="#0ab69f"/>
      </g>
    </g>
    <g id="Group_14812" data-name="Group 14812" transform="translate(9.375 13.525)">
      <g id="Group_14811" data-name="Group 14811">
        <circle id="Ellipse_3391" data-name="Ellipse 3391" cx="0.977" cy="0.977" r="0.977" transform="translate(0 0)" fill="#0ab69f"/>
      </g>
    </g>
    <g id="Group_14814" data-name="Group 14814" transform="translate(9.375 17.773)">
      <g id="Group_14813" data-name="Group 14813">
        <circle id="Ellipse_3392" data-name="Ellipse 3392" cx="0.977" cy="0.977" r="0.977" transform="translate(0 0)" fill="#0ab69f"/>
      </g>
    </g>
    <g id="Group_14816" data-name="Group 14816" transform="translate(13.623 13.525)">
      <g id="Group_14815" data-name="Group 14815">
        <circle id="Ellipse_3393" data-name="Ellipse 3393" cx="0.977" cy="0.977" r="0.977" transform="translate(0 0)" fill="#0ab69f"/>
      </g>
    </g>
    <g id="Group_14818" data-name="Group 14818" transform="translate(17.871 13.525)">
      <g id="Group_14817" data-name="Group 14817">
        <circle id="Ellipse_3394" data-name="Ellipse 3394" cx="0.977" cy="0.977" r="0.977" transform="translate(0 0)" fill="#0ab69f"/>
      </g>
    </g>
    <g id="Group_14820" data-name="Group 14820" transform="translate(13.623 17.773)">
      <g id="Group_14819" data-name="Group 14819">
        <circle id="Ellipse_3395" data-name="Ellipse 3395" cx="0.977" cy="0.977" r="0.977" transform="translate(0 0)" fill="#0ab69f"/>
      </g>
    </g>
  </g>
</svg>
