<svg xmlns="http://www.w3.org/2000/svg" width="104.001" height="104" viewBox="0 0 104.001 104">
  <g id="Feepayment" transform="translate(-24 -24)">
    <rect id="Rectangle_4765" data-name="Rectangle 4765" width="60.966" height="87.862" rx="4" transform="translate(24 24)" fill="#348fd9"/>
    <path id="Path_19419" data-name="Path 19419" d="M69.379,151.862h50.207a5.379,5.379,0,0,0,5.379-5.379v-77.1A5.379,5.379,0,0,0,119.586,64H80.138L64,80.138v66.345A5.379,5.379,0,0,0,69.379,151.862Z" transform="translate(-31.034 -31.034)" fill="#60d1e0"/>
    <path id="Path_19420" data-name="Path 19420" d="M80.138,74.759V64L64,80.138H74.759A5.379,5.379,0,0,0,80.138,74.759Z" transform="translate(-31.034 -31.034)" fill="#8adbe6"/>
    <g id="Group_14840" data-name="Group 14840" transform="translate(40.138 40.138)">
      <path id="Path_19421" data-name="Path 19421" d="M137.241,160H101.379A5.386,5.386,0,0,0,96,165.379V212a5.386,5.386,0,0,0,5.379,5.379h35.862a5.385,5.385,0,0,0,5.38-5.379V165.379A5.385,5.385,0,0,0,137.241,160Zm1.793,5.379v3.586h-28.69v-5.379h26.9a1.8,1.8,0,0,1,1.79,1.793Zm-32.276,16.138V186.9H99.586v-5.379Zm-7.172-3.586v-5.379h7.172v5.379Zm7.172,12.552v5.379H99.586v-5.379Zm0,8.966v5.379H99.586v-5.379Zm3.586,0h28.69v5.379h-28.69Zm0-3.586v-5.379h28.69v5.379Zm0-8.966v-5.379h28.69V186.9Zm0-8.965v-5.379h28.69v5.379Zm-8.965-14.345h5.379v5.379H99.586V165.38a1.8,1.8,0,0,1,1.793-1.794ZM99.586,212v-3.586h7.172v5.379h-5.379A1.8,1.8,0,0,1,99.586,212Zm37.655,1.793h-26.9v-5.379h28.69V212A1.8,1.8,0,0,1,137.241,213.793Z" transform="translate(-96 -145.655)" fill="#4eb9c7"/>
      <path id="Path_19422" data-name="Path 19422" d="M160,128h16.138v3.586H160Z" transform="translate(-145.655 -120.828)" fill="#4eb9c7"/>
      <path id="Path_19423" data-name="Path 19423" d="M160,96h32.276v3.586H160Z" transform="translate(-145.655 -96)" fill="#4eb9c7"/>
    </g>
    <path id="Path_19424" data-name="Path 19424" d="M283.867,264.414H246.34a6.34,6.34,0,0,1-4.483-10.822,5.9,5.9,0,0,0,1.729-4.175V230.345A14.345,14.345,0,0,1,257.931,216h14.345a14.345,14.345,0,0,1,14.345,14.345v19.071a5.9,5.9,0,0,0,1.731,4.176,6.34,6.34,0,0,1-4.484,10.821Z" transform="translate(-167.586 -148.966)" fill="#ffb531"/>
    <path id="Path_19425" data-name="Path 19425" d="M325.517,168H304l3.586,10.759h14.345Z" transform="translate(-217.241 -111.724)" fill="#fcac1f"/>
    <path id="Path_19427" data-name="Path 19427" d="M288.477,250.448l-3.1-1.8a9.022,9.022,0,0,1,3.276-3.276l1.8,3.1A5.431,5.431,0,0,0,288.477,250.448Z" transform="translate(-202.79 -171.756)" fill="#ffc361"/>
    <path id="Path_19428" data-name="Path 19428" d="M280,280h3.586v8.965H280Z" transform="translate(-198.621 -198.621)" fill="#ffc361"/>
    <path id="Path_19429" data-name="Path 19429" d="M436.4,207.156a18.251,18.251,0,0,0-8.139-9.49l1.674-3.172a21.826,21.826,0,0,1,9.792,11.324Z" transform="translate(-313.655 -132.28)" fill="#b7e7eb"/>
    <path id="Path_19430" data-name="Path 19430" d="M273.7,386.057A12.242,12.242,0,0,0,266.913,384h-.187a12.244,12.244,0,0,0-8.658,3.586H242.827a4.479,4.479,0,0,0-4.1,6.3l-6.219-5.182a4.824,4.824,0,0,0-3.084-1.118h-.706A4.718,4.718,0,0,0,224,392.3v.083a4.827,4.827,0,0,0,1.86,3.825c3.248,2.524,9.883,7.685,12.821,9.97a5.375,5.375,0,0,0,3.3,1.132H276V387.586Z" transform="translate(-155.172 -279.31)" fill="#fec9a3"/>
    <path id="Path_19431" data-name="Path 19431" d="M456,400h7.173v19.724H456Z" transform="translate(-335.172 -291.724)" fill="#348fd9"/>
    <rect id="Rectangle_4766" data-name="Rectangle 4766" width="17.931" height="3.586" rx="1.793" transform="translate(84.965 115.448)" fill="#feb784"/>
    <path id="Path_19432" data-name="Path 19432" d="M15.213-19.108a4.551,4.551,0,0,1-.306,1.584,7.92,7.92,0,0,1-.834,1.621,10.454,10.454,0,0,1-1.232,1.519,9.78,9.78,0,0,1-1.492,1.26,8.156,8.156,0,0,1-1.612.862,4.366,4.366,0,0,1-1.6.324,10.8,10.8,0,0,1-1.371-.093,3.567,3.567,0,0,1-1.325-.435,2.717,2.717,0,0,1-1-1.028,3.773,3.773,0,0,1-.4-1.89v-5.207H3.224L1.39-22.407H4.04v-1.649q0-.463.046-1.028a4.235,4.235,0,0,0-.037-1.056,1.661,1.661,0,0,0-.371-.825,1.2,1.2,0,0,0-.954-.334,3.221,3.221,0,0,0-.417.028.77.77,0,0,0-.38.157l-.611-1.742a7.642,7.642,0,0,1,.917-.315,3.589,3.589,0,0,1,.954-.13A2.834,2.834,0,0,1,4.595-29a2.3,2.3,0,0,1,.843.806,3.1,3.1,0,0,1,.408,1.149,8.706,8.706,0,0,1,.1,1.353v3.243H6.56l1.779,1.853H5.948v5.17A1.357,1.357,0,0,0,6.5-14.189a2.464,2.464,0,0,0,1.371.361A3.379,3.379,0,0,0,9.5-14.273a5.945,5.945,0,0,0,1.455-1.112,5.635,5.635,0,0,0,1.019-1.455A2.821,2.821,0,0,0,12.3-18.3l-.019-.13L11.9-18.4a2.793,2.793,0,0,1-.973-.093,2.3,2.3,0,0,1-.8-.4,1.916,1.916,0,0,1-.547-.695,2.251,2.251,0,0,1-.2-.982A2.812,2.812,0,0,1,10-22.5a2.352,2.352,0,0,1,1.862-.7,3.615,3.615,0,0,1,1.6.315,2.671,2.671,0,0,1,1.028.871,3.62,3.62,0,0,1,.556,1.306,7.377,7.377,0,0,1,.167,1.6Z" transform="translate(91.684 111.486)" fill="#2262c6"/>
  </g>
</svg>
