<svg xmlns="http://www.w3.org/2000/svg" xmlns:xlink="http://www.w3.org/1999/xlink" width="42.821" height="43.999" viewBox="0 0 42.821 43.999">
  <defs>
    <filter id="Path_18664" x="0" y="0" width="42.821" height="43.999" filterUnits="userSpaceOnUse">
      <feOffset dy="3" input="SourceAlpha"/>
      <feGaussianBlur stdDeviation="3" result="blur"/>
      <feFlood flood-opacity="0.161"/>
      <feComposite operator="in" in2="blur"/>
      <feComposite in="SourceGraphic"/>
    </filter>
  </defs>
  <g id="feespay" transform="translate(2351 3275.999)">
    <g transform="matrix(1, 0, 0, 1, -2351, -3276)" filter="url(#Path_18664)">
      <path id="Path_18664-2" data-name="Path 18664" d="M24.23,21.273H20.094a4.727,4.727,0,0,1,0-9.454H24.23a.591.591,0,0,0,.591-.591V9.455A2.359,2.359,0,0,0,22.645,7.11L19.252,1.183A2.339,2.339,0,0,0,16.043.318L4.41,7.091H2.367A2.366,2.366,0,0,0,0,9.455V23.636A2.366,2.366,0,0,0,2.367,26h20.09a2.366,2.366,0,0,0,2.364-2.364V21.864a.591.591,0,0,0-.591-.591ZM19.985,4.842l1.288,2.249h-5.15ZM6.759,7.091l9.88-5.751a1.143,1.143,0,0,1,.878-.118,1.159,1.159,0,0,1,.71.549h0L9.091,7.091Z" transform="translate(9 6)" fill="#2262c6"/>
    </g>
    <path id="Path_18665" data-name="Path 18665" d="M306.352,234.674h-4.136a3.546,3.546,0,0,0,0,7.091h4.136a1.775,1.775,0,0,0,1.773-1.773v-3.545a1.775,1.775,0,0,0-1.773-1.773Zm-4.136,4.727a1.182,1.182,0,1,1,1.182-1.182,1.182,1.182,0,0,1-1.182,1.182Z" transform="translate(-2624.125 -3491.674)" fill="#399eff"/>
  </g>
</svg>
