<svg xmlns="http://www.w3.org/2000/svg" xmlns:xlink="http://www.w3.org/1999/xlink" width="40.344" height="44" viewBox="0 0 40.344 44">
  <defs>
    <filter id="sumhistory" x="0" y="0" width="40.344" height="44" filterUnits="userSpaceOnUse">
      <feOffset dy="3" input="SourceAlpha"/>
      <feGaussianBlur stdDeviation="3" result="blur"/>
      <feFlood flood-opacity="0.161"/>
      <feComposite operator="in" in2="blur"/>
      <feComposite in="SourceGraphic"/>
    </filter>
  </defs>
  <g transform="matrix(1, 0, 0, 1, 0, 0)" filter="url(#sumhistory)">
    <path id="sumhistory-2" data-name="sumhistory" d="M78.842-1246A2.845,2.845,0,0,1,76-1248.84v-20.316A2.845,2.845,0,0,1,78.842-1272H91.509v4.975a1.768,1.768,0,0,0,1.766,1.766h5.069v16.418A2.845,2.845,0,0,1,95.5-1246Zm2.118-7.059a.762.762,0,0,0,.762.762h9.811a.762.762,0,0,0,.762-.762.762.762,0,0,0-.762-.762H81.722a.762.762,0,0,0-.762.761Zm0-3.047a.762.762,0,0,0,.762.762h8.755a.762.762,0,0,0,.762-.762.761.761,0,0,0-.223-.539.761.761,0,0,0-.539-.223H81.722a.762.762,0,0,0-.541.225.762.762,0,0,0-.221.543Zm0-3.047a.762.762,0,0,0,.762.762H92.46a.762.762,0,0,0,.762-.762.762.762,0,0,0-.762-.762H81.722a.762.762,0,0,0-.54.224.762.762,0,0,0-.222.541Zm12.314-7.631a.242.242,0,0,1-.172-.07.242.242,0,0,1-.071-.172v-4.533l4.862,4.775Z" transform="translate(-67 1278)" fill="#0ab69f"/>
  </g>
</svg>
