<svg xmlns="http://www.w3.org/2000/svg" xmlns:xlink="http://www.w3.org/1999/xlink" width="38.792" height="43.999" viewBox="0 0 38.792 43.999">
  <defs>
    <filter id="Path_19413" x="0" y="2.073" width="36.567" height="41.926" filterUnits="userSpaceOnUse">
      <feOffset dy="3" input="SourceAlpha"/>
      <feGaussianBlur stdDeviation="3" result="blur"/>
      <feFlood flood-opacity="0.161"/>
      <feComposite operator="in" in2="blur"/>
      <feComposite in="SourceGraphic"/>
    </filter>
    <filter id="Path_19414" x="2.12" y="0" width="36.672" height="41.985" filterUnits="userSpaceOnUse">
      <feOffset dy="3" input="SourceAlpha"/>
      <feGaussianBlur stdDeviation="3" result="blur-2"/>
      <feFlood flood-opacity="0.161"/>
      <feComposite operator="in" in2="blur-2"/>
      <feComposite in="SourceGraphic"/>
    </filter>
  </defs>
  <g id="summary" transform="translate(9.918 6.001)">
    <g transform="matrix(1, 0, 0, 1, -9.92, -6)" filter="url(#Path_19413)">
      <path id="Path_19413-2" data-name="Path 19413" d="M17.649,69.086H2.891A2.523,2.523,0,0,1,.315,66.621V46.282a1.637,1.637,0,0,0-1.233,1.51V68.64A1.626,1.626,0,0,0,.763,70.207h15.27a1.645,1.645,0,0,0,1.616-1.121Zm0,0" transform="translate(9.92 -38.21)" fill="#ff6680"/>
    </g>
    <g transform="matrix(1, 0, 0, 1, -9.92, -6)" filter="url(#Path_19414)">
      <path id="Path_19414-2" data-name="Path 19414" d="M65.051,22.415v-11.1H52.381l-.006.694v.035h5.393a.45.45,0,1,1,0,.9H52.326a.831.831,0,0,1-.58-.261.989.989,0,0,1-.268-.691l.006-.672h-.947a.439.439,0,0,1-.447-.439v-.066H48.742a.448.448,0,0,1-.448-.445L48.28,8.419a.461.461,0,0,1,.448-.462h0l1.358.026V7.926a.47.47,0,0,1,.447-.473H65.051V5.435h-3.8a1.463,1.463,0,0,1-1.472-1.471V0H48.071a1.641,1.641,0,0,0-1.689,1.51.435.435,0,0,1,.012.058c0,.024,0,.047,0,.07V22.415a1.626,1.626,0,0,0,1.68,1.568h15.27a1.654,1.654,0,0,0,1.71-1.568Zm-16.3-8.294h7.37a.45.45,0,0,1,0,.9h-7.37a.45.45,0,1,1,0-.9Zm12.827,7.453H48.747a.45.45,0,1,1,0-.9H61.574a.45.45,0,0,1,0,.9Zm0-2.185H48.747a.45.45,0,1,1,0-.9H61.574a.45.45,0,0,1,0,.9Zm0-2.185H48.747a.45.45,0,1,1,0-.9H61.574a.45.45,0,0,1,0,.9Zm0,0" transform="translate(-35.26 6)" fill="#ff6680"/>
    </g>
    <path id="Path_19415" data-name="Path 19415" d="M369.025,19.84l-3.694-3.821v3.246a.565.565,0,0,0,.576.574Zm0,0" transform="translate(-349.831 -15.301)" fill="#ff6680"/>
    <path id="Path_19416" data-name="Path 19416" d="M520.332,195.25v1.3l1-.651Zm0,0" transform="translate(-497.883 -186.497)" fill="#ff6680"/>
    <path id="Path_19417" data-name="Path 19417" d="M149.082,186.25h15.746v2.073H149.082Zm0,0" transform="translate(-143.276 -177.901)" fill="#ff6680"/>
    <path id="Path_19418" data-name="Path 19418" d="M109.7,198.9v-1.038l-.91-.011.007,1.049Zm0,0" transform="translate(-104.789 -188.986)" fill="#ff6680"/>
  </g>
</svg>
