<svg xmlns="http://www.w3.org/2000/svg" width="13.897" height="17.366" viewBox="0 0 13.897 17.366">
  <path id="taka3" d="M15.213-19.108a4.551,4.551,0,0,1-.306,1.584,7.92,7.92,0,0,1-.834,1.621,10.454,10.454,0,0,1-1.232,1.519,9.78,9.78,0,0,1-1.492,1.26,8.156,8.156,0,0,1-1.612.862,4.366,4.366,0,0,1-1.6.324,10.8,10.8,0,0,1-1.371-.093,3.567,3.567,0,0,1-1.325-.435,2.717,2.717,0,0,1-1-1.028,3.773,3.773,0,0,1-.4-1.89v-5.207H3.224L1.39-22.407H4.04v-1.649q0-.463.046-1.028a4.235,4.235,0,0,0-.037-1.056,1.661,1.661,0,0,0-.371-.825,1.2,1.2,0,0,0-.954-.334,3.221,3.221,0,0,0-.417.028.77.77,0,0,0-.38.157l-.611-1.742a7.642,7.642,0,0,1,.917-.315,3.589,3.589,0,0,1,.954-.13A2.834,2.834,0,0,1,4.595-29a2.3,2.3,0,0,1,.843.806,3.1,3.1,0,0,1,.408,1.149,8.706,8.706,0,0,1,.1,1.353v3.243H6.56l1.779,1.853H5.948v5.17A1.357,1.357,0,0,0,6.5-14.189a2.464,2.464,0,0,0,1.371.361A3.379,3.379,0,0,0,9.5-14.273a5.945,5.945,0,0,0,1.455-1.112,5.635,5.635,0,0,0,1.019-1.455A2.821,2.821,0,0,0,12.3-18.3l-.019-.13L11.9-18.4a2.793,2.793,0,0,1-.973-.093,2.3,2.3,0,0,1-.8-.4,1.916,1.916,0,0,1-.547-.695,2.251,2.251,0,0,1-.2-.982A2.812,2.812,0,0,1,10-22.5a2.352,2.352,0,0,1,1.862-.7,3.615,3.615,0,0,1,1.6.315,2.671,2.671,0,0,1,1.028.871,3.62,3.62,0,0,1,.556,1.306,7.377,7.377,0,0,1,.167,1.6Z" transform="translate(-1.316 29.304)" fill="#5e5e5e"/>
</svg>
