<svg xmlns="http://www.w3.org/2000/svg" width="25" height="25.003" viewBox="0 0 25 25.003">
  <g id="wall-clock" transform="translate(0 0)">
    <g id="Group_14822" data-name="Group 14822">
      <g id="Group_14821" data-name="Group 14821">
        <path id="Path_19338" data-name="Path 19338" d="M21.339,3.661A12.5,12.5,0,1,0,18.968,23.2a.977.977,0,1,0-1.012-1.671,10.641,10.641,0,1,1,3.3-3.174A.977.977,0,0,0,22.88,19.44,12.469,12.469,0,0,0,21.339,3.661Z" fill="#0ab69f"/>
      </g>
    </g>
    <g id="Group_14824" data-name="Group 14824" transform="translate(7.656 3.711)">
      <g id="Group_14823" data-name="Group 14823">
        <path id="Path_19339" data-name="Path 19339" d="M161.647,76a.977.977,0,0,0-.977.977v7.408l-3.581,3.581a.977.977,0,1,0,1.381,1.381l3.867-3.867a.976.976,0,0,0,.286-.691V76.977a.977.977,0,0,0-.976-.977Z" transform="translate(-156.804 -76)" fill="#0ab69f"/>
      </g>
    </g>
  </g>
</svg>
